<?xml version="1.0" encoding="UTF-8"?>
<svg id="_レイヤー_2" data-name="レイヤー 2" xmlns="http://www.w3.org/2000/svg" xmlns:xlink="http://www.w3.org/1999/xlink" viewBox="0 0 51.93 48.72">
  <defs>
    <style>
      .cls-1 {
        fill: url(#_名称未設定グラデーション_17);
        stroke-width: 0px;
      }
    </style>
    <linearGradient id="_名称未設定グラデーション_17" data-name="名称未設定グラデーション 17" x1="25.96" y1="48.72" x2="25.96" y2="0" gradientUnits="userSpaceOnUse">
      <stop offset="0" stop-color="#59c2e1"/>
      <stop offset="1" stop-color="#007e48"/>
    </linearGradient>
  </defs>
  <g id="_レイヤー_1-2" data-name="レイヤー 1">
    <path class="cls-1" d="m48.68,6.13c-1.79,0-3.24,1.45-3.24,3.24l-3.24,1.87L22.72,0,1.62,12.18v20.54c-.97.56-1.62,1.61-1.62,2.81,0,1.79,1.45,3.24,3.24,3.24.56,0,1.09-.14,1.55-.4l17.92,10.35,17.92-10.35c.46.25.99.4,1.55.4,1.79,0,3.24-1.45,3.24-3.24,0-1.2-.65-2.25-1.62-2.81V14.05l3.25-1.87c.48.28,1.03.44,1.62.44,1.79,0,3.24-1.45,3.24-3.24s-1.45-3.24-3.24-3.24ZM11.36,30.92v-3.77c.97-.56,1.62-1.61,1.62-2.81,0-1.79-1.45-3.24-3.24-3.24s-3.24,1.45-3.24,3.24c0,1.2.65,2.25,1.62,2.81v4.7c0,.58.31,1.12.81,1.41l12.17,7.03v3.75l-14.61-8.44s0-.05,0-.08c0-1.2-.65-2.25-1.62-2.81V14.05L22.72,3.75l16.23,9.37-14.62,8.44c-.47-.27-1.02-.43-1.61-.43s-1.13.16-1.61.43l-8.13-4.7,9.74-5.62,5.68,3.28c.78.45,1.77.18,2.22-.59.45-.78.18-1.77-.59-2.22l-6.49-3.75c-.5-.29-1.12-.29-1.62,0l-12.98,7.5c-.5.29-.81.83-.81,1.41s.31,1.12.81,1.41l10.55,6.09s0,.01,0,.02c0,1.79,1.45,3.24,3.24,3.24s3.24-1.45,3.24-3.24c0,0,0-.01,0-.02l8.12-4.69v11.24l-11.36,6.56-11.36-6.56Zm12.98,9.37l12.17-7.03c.5-.29.81-.83.81-1.41v-14.05l3.25-1.87v16.79c-.97.56-1.62,1.61-1.62,2.81,0,.03,0,.05,0,.08l-14.61,8.44v-3.75Z"/>
  </g>
</svg>